<?xml version="1.0" encoding="utf-8"?>
<!-- Generator: Adobe Illustrator 27.0.1, SVG Export Plug-In . SVG Version: 6.00 Build 0)  -->
<svg version="1.1" id="Layer_1" xmlns="http://www.w3.org/2000/svg" xmlns:xlink="http://www.w3.org/1999/xlink" x="0px" y="0px"
	 viewBox="0 0 612 792" style="enable-background:new 0 0 612 792;" xml:space="preserve">
<style type="text/css">
	.st0{fill:#DEE787;}
	.st1{clip-path:url(#SVGID_00000147925360173956661430000007955905650560488859_);fill:#DEE787;}
	.st2{clip-path:url(#SVGID_00000147925360173956661430000007955905650560488859_);fill:#ADD581;}
	.st3{fill:#ADD581;}
	.st4{clip-path:url(#SVGID_00000112602323762920720550000008999123049862303122_);fill:#65C294;}
	.st5{fill:#65C294;}
	.st6{fill:#5BC4BF;}
	.st7{clip-path:url(#SVGID_00000146466375293955285990000000194694271730420362_);fill:#5BC4BF;}
</style>
<rect x="-9.3" y="-9" width="630.3" height="810"/>
<path class="st0" d="M156.3,232.7l2.8-44.2l4.3-60.7h25L178,232.7H156.3z M134.6,260.4l-6.1-37l-2-73.8h-4.3l-2,73.8l-1.5,9.3H96.1
	l0.7-44.2l11.6-59.8h31.8l11.6,59.8l-0.3,50.1h25.9l-2.2,21.9H134.6z M72.4,260.4L59.8,127.8h25l4.3,60.7l2.5,50.1h25l-3.6,21.9
	H72.4z"/>
<path class="st0" d="M240.1,127.8H265v132.6h-24.9V127.8z M197.9,260.4V127.8h24.9V182h12.4l-5.8,21.9h-6.6v56.5H197.9z"/>
<g>
	<defs>
		<rect id="SVGID_1_" x="19.7" y="-9" width="572.2" height="810"/>
	</defs>
	<clipPath id="SVGID_00000108300773597765583510000016830656538708137637_">
		<use xlink:href="#SVGID_1_"  style="overflow:visible;"/>
	</clipPath>
	<path style="clip-path:url(#SVGID_00000108300773597765583510000016830656538708137637_);fill:#DEE787;" d="M317,262v-20.6
		c3.7-1.1,5.6-3.7,5.8-8c0.3-5.6,0.5-11.8,0.6-18.6c0.1-6.7,0.2-13.7,0.2-20.8c0-7.1-0.1-14.1-0.2-20.8c-0.1-6.7-0.3-12.9-0.6-18.6
		c-0.2-4.1-2.1-6.7-5.8-7.8v-20.6c10.6,0.6,18.2,3.4,22.9,8.6c4.7,5.2,7.2,13.3,7.6,24.4c0.4,11,0.7,22.6,0.7,34.8
		c0,12.2-0.2,23.8-0.7,34.6c-0.4,11.2-2.9,19.3-7.6,24.5C335.3,258.5,327.6,261.4,317,262 M308.8,262c-10.7-0.5-18.5-3.3-23.3-8.5
		c-4.8-5.2-7.4-13.4-7.7-24.7c-0.2-10.9-0.3-22.5-0.3-34.8c0-12.3,0.1-23.9,0.3-34.7c0.3-11.2,2.8-19.4,7.7-24.6
		c4.8-5.2,12.6-8,23.3-8.5v20.6c-3.8,1.1-5.8,3.7-6,7.8c-0.2,5.6-0.4,11.8-0.5,18.6c-0.1,6.7-0.2,13.7-0.2,20.8
		c0,7.1,0.1,14.1,0.2,20.8c0.1,6.7,0.3,12.9,0.5,18.6c0.2,4.2,2.2,6.9,6,8V262z"/>
	<path style="clip-path:url(#SVGID_00000108300773597765583510000016830656538708137637_);fill:#ADD581;" d="M96.8,405.5v-21.9h0.8
		c7.2,0,10.8-3.6,10.8-10.8V364c0-5.5-0.8-9.3-2.5-11.6c-1.7-2.3-4.4-3.4-8.2-3.4h-0.8v-21.9h0.8c3.5,0,6.1-1.2,8-3.6
		c1.9-2.4,2.8-5.8,2.8-10.2v-9.4c0-6.1-3.6-9.1-10.8-9.1h-0.8v-21.9h0.8c12.4,0,21.4,2.5,27.1,7.5c5.7,5,8.5,13.3,8.5,24.8v4.5
		c0,1.4-0.1,2.9-0.2,4.3c-0.3,6-1.7,10.8-4,14.4c-2.4,3.6-6,6.2-10.9,7.8v4c5.1,1.7,8.8,4.3,11.2,7.9c2.4,3.6,3.7,8.5,3.9,14.8
		c0.2,3.4,0.2,6.8,0,10.3c-0.5,11.5-3.5,19.8-8.9,24.8c-5.4,5-14.4,7.5-26.7,7.5H96.8z M63.6,272.9h24.9v132.6H63.6V272.9z"/>
	<path style="clip-path:url(#SVGID_00000108300773597765583510000016830656538708137637_);fill:#ADD581;" d="M183.2,407v-20.6
		c3.9-1.1,5.8-3.8,5.8-8c0.1-11.1,0.2-22.7,0.3-34.7c0.1-12,0.1-24.1,0.1-36.1c0-12-0.2-23.6-0.4-34.7h24.9
		c0.5,33.6,0.5,67.3,0,100.9c-0.2,11.2-2.6,19.4-7.3,24.6C201.8,403.6,194,406.5,183.2,407 M144.1,373.8c-0.5-33.6-0.5-67.3,0-100.9
		H169c-0.2,11.1-0.3,22.7-0.4,34.7c0,12,0,24.1,0.1,36.1c0.1,12,0.2,23.6,0.3,34.7c0,4.2,2,6.9,6,8V407c-10.9-0.6-18.7-3.4-23.5-8.6
		C146.7,393.2,144.3,385,144.1,373.8"/>
</g>
<rect x="226" y="272.9" class="st3" width="24.9" height="132.6"/>
<path class="st3" d="M297.2,383.6h24.4v21.9h-24.4V383.6z M264.1,272.9H289v132.6h-24.9V272.9z"/>
<path class="st3" d="M334,303h24.9v102.4H334V303z M312.6,272.9h67.5v21.9h-67.5V272.9z"/>
<g>
	<defs>
		<rect id="SVGID_00000153673393912629989600000014165689982384417413_" x="19.7" y="-9" width="572.2" height="810"/>
	</defs>
	<clipPath id="SVGID_00000124155374135391847840000016488650598235053978_">
		<use xlink:href="#SVGID_00000153673393912629989600000014165689982384417413_"  style="overflow:visible;"/>
	</clipPath>
	<path style="clip-path:url(#SVGID_00000124155374135391847840000016488650598235053978_);fill:#65C294;" d="M96.8,550.5v-21.9h0.8
		c7.2,0,10.8-3.6,10.8-10.8v-8.8c0-5.5-0.8-9.3-2.5-11.6c-1.7-2.3-4.4-3.4-8.2-3.4h-0.8v-21.9h0.8c3.5,0,6.1-1.2,8-3.6
		c1.9-2.4,2.8-5.8,2.8-10.2v-9.4c0-6.1-3.6-9.1-10.8-9.1h-0.8v-21.9h0.8c12.4,0,21.4,2.5,27.1,7.5c5.7,5,8.5,13.3,8.5,24.8v4.5
		c0,1.4-0.1,2.9-0.2,4.3c-0.3,6-1.7,10.8-4,14.4c-2.4,3.6-6,6.2-10.9,7.8v4c5.1,1.7,8.8,4.3,11.2,7.9c2.4,3.6,3.7,8.5,3.9,14.8
		c0.2,3.4,0.2,6.8,0,10.3c-0.5,11.5-3.5,19.8-8.9,24.8c-5.4,5-14.4,7.5-26.7,7.5H96.8z M63.6,417.9h24.9v132.6H63.6V417.9z"/>
	<path style="clip-path:url(#SVGID_00000124155374135391847840000016488650598235053978_);fill:#65C294;" d="M191,550.5l-12.4-44.7
		h-0.2v-21.9h0.2c6.9,0,10.4-3,10.8-9.1c0.6-8.6,0.6-17.2,0-25.9c-0.3-6.1-3.9-9.1-10.8-9.1h-0.2v-21.9h0.2
		c12.4,0,21.3,2.5,26.8,7.5c5.5,5,8.4,13.3,8.8,24.8c0.1,3.1,0.2,5.8,0.2,8.1c0,2.3,0,4.6,0,7c0,2.3-0.1,5-0.2,8.1
		c-0.5,13.8-4.8,23-12.9,27.7l15.6,49.4H191z M145.3,417.9h24.9v132.6h-24.9V417.9z"/>
</g>
<path class="st5" d="M254.6,483.2l3-33.1l7.1-32.1H290l-16.6,65.3H254.6z M239.3,550.5v-31.8l-24.9-100.8h25.4l7.1,32.1l2.5,38.9h22
	l-7.3,29.7v31.8H239.3z"/>
<path class="st5" d="M359.4,520.4l-7.6-60.2l-1.2-42.3h24v102.4H359.4z M297.9,550.5V447.9h15.4l6.5,59.8l2.2,42.8H297.9z
	 M336.8,550.5l-9.9-43.4l-6.8-67.5h-22.2v-21.7h36l9.9,42.3l9.1,68.4h21.7v21.9H336.8z"/>
<path class="st6" d="M149,695.6v-36.5l7.1-66h17.7v102.4H149z M63.6,695.6V593.2h17.9l7,66v36.5H63.6z M105.4,695.6l-10.1-39.1
	l-7.1-71.6H63.6V563h39.9l10.9,50.2l2.2,60.5h4.3l2-60.5l11.1-50.2h39.8v21.9h-24.5l-7,71.6l-10.3,39.1H105.4z"/>
<path class="st6" d="M234.2,695.6l-9-75.7l-0.8-26.7H245l14.8,102.4H234.2z M182.1,695.6L200.5,563h41.1l2.8,21.9h-25.5l-1.8,35.1
	l-3.5,26h10.1l-5.8,21.9h-5.8l-4.5,27.7H182.1z"/>
<path class="st6" d="M354.1,667.9l2.8-44.3l4.3-60.7h25l-10.4,104.9H354.1z M332.4,695.6l-6.1-37l-2-73.7h-4.3l-2,73.7l-1.5,9.3
	h-22.5l0.7-44.3l11.6-59.8H338l11.6,59.8l-0.3,50.1h25.9l-2.2,21.9H332.4z M270.2,695.6L257.6,563h25l4.3,60.7l2.5,50.1h25
	l-3.6,21.9H270.2z"/>
<g>
	<defs>
		<rect id="SVGID_00000110464777508214531260000012067871669565736344_" x="19.7" y="-9" width="572.2" height="810"/>
	</defs>
	<clipPath id="SVGID_00000128460789929397045070000000994987151037444018_">
		<use xlink:href="#SVGID_00000110464777508214531260000012067871669565736344_"  style="overflow:visible;"/>
	</clipPath>
	<path style="clip-path:url(#SVGID_00000128460789929397045070000000994987151037444018_);fill:#5BC4BF;" d="M441.4,695.6L429,650.8
		h-0.2V629h0.2c6.9,0,10.4-3,10.8-9.1c0.6-8.6,0.6-17.2,0-25.9c-0.3-6.1-3.9-9.1-10.8-9.1h-0.2V563h0.2c12.4,0,21.3,2.5,26.8,7.5
		c5.5,5,8.4,13.3,8.8,24.8c0.1,3.1,0.2,5.8,0.2,8.1c0,2.3,0,4.6,0,7c0,2.3-0.1,5-0.2,8.1c-0.5,13.8-4.8,23-12.9,27.7l15.6,49.4
		H441.4z M395.7,563h24.9v132.6h-24.9V563z"/>
	<path style="clip-path:url(#SVGID_00000128460789929397045070000000994987151037444018_);fill:#5BC4BF;" d="M499.9,659l-0.5-7.3
		c-0.3-5-0.2-9.2,0.5-12.6c0.7-3.4,2.1-6.5,4.2-9.1c2.1-2.7,5.1-5.2,9.1-7.8l2.8-1.8c1.8-1.1,2.9-2.9,3.3-5.5
		c0.4-2.6,0.7-5.3,0.7-8.1v-17.1c0-4.2-2.1-6.8-6.3-7.9v-20.6c11.1,0.5,19,3.3,23.9,8.5c4.9,5.2,7.3,13.4,7.3,24.6v12.4
		c0,6.2-0.6,11.1-1.7,14.9c-1.1,3.7-2.6,6.6-4.3,8.7c-1.7,2-3.5,3.6-5.3,4.6c-1.8,1-3.4,1.9-4.8,2.7l-4,2.2
		c-2.3,1.2-3.7,2.9-4.2,5.1c-0.5,2.2-0.9,4.5-1.1,6.8l-0.7,7.3H499.9z M495.2,672.6h28.2v23h-28.2V672.6z M475.6,612.6
		c-0.1-2.3-0.1-5-0.2-8.1c-0.1-3.1-0.1-6.5,0.1-10.1c0.4-11.2,3-19.3,7.6-24.5c4.6-5.2,12.1-8,22.4-8.6V582
		c-3.5,1.2-5.4,3.7-5.6,7.7c-0.2,4.2-0.3,8.2-0.4,12c0,3.8,0,7.4,0.2,10.9H475.6z"/>
</g>
</svg>
